<mxfile host="app.diagrams.net" modified="2021-10-14T21:00:00.666Z" agent="5.0 (Windows)" etag="MKwRudPMjYOEFb1WbJom" version="15.4.3" type="github">
  <diagram id="TZRqbXaM9DAVDbSQ0hID" name="Page-1">
    <mxGraphModel dx="1473" dy="756" grid="1" gridSize="10" guides="1" tooltips="1" connect="1" arrows="1" fold="1" page="1" pageScale="1" pageWidth="827" pageHeight="1169" background="#FFFFFF" math="0" shadow="0">
      <root>
        <mxCell id="0" />
        <mxCell id="1" parent="0" />
        <mxCell id="C-o5tXB91xvLEL7oUqsc-1" value="" style="rounded=0;whiteSpace=wrap;html=1;fillColor=#d5e8d4;strokeColor=#82b366;" vertex="1" parent="1">
          <mxGeometry width="820" height="140" as="geometry" />
        </mxCell>
        <mxCell id="C-o5tXB91xvLEL7oUqsc-2" value="seminaari&lt;span style=&quot;white-space: pre&quot;&gt;	ILMOITTAUTUMIINEN&lt;span style=&quot;white-space: pre&quot;&gt;	&lt;/span&gt;logo&lt;/span&gt;" style="rounded=1;whiteSpace=wrap;html=1;" vertex="1" parent="1">
          <mxGeometry x="123" y="20" width="580" height="40" as="geometry" />
        </mxCell>
        <mxCell id="C-o5tXB91xvLEL7oUqsc-3" value="" style="rounded=1;whiteSpace=wrap;html=1;shadow=1;" vertex="1" parent="1">
          <mxGeometry x="123" y="240" width="600" height="660" as="geometry" />
        </mxCell>
        <mxCell id="C-o5tXB91xvLEL7oUqsc-4" value="etusivu" style="rounded=1;whiteSpace=wrap;html=1;shadow=1;" vertex="1" parent="1">
          <mxGeometry x="110" y="120" width="120" height="80" as="geometry" />
        </mxCell>
        <mxCell id="C-o5tXB91xvLEL7oUqsc-5" value="hinnasto" style="rounded=1;whiteSpace=wrap;html=1;shadow=1;" vertex="1" parent="1">
          <mxGeometry x="250" y="120" width="120" height="80" as="geometry" />
        </mxCell>
        <mxCell id="C-o5tXB91xvLEL7oUqsc-6" value="yhteystiedot tms" style="rounded=0;whiteSpace=wrap;html=1;shadow=1;" vertex="1" parent="1">
          <mxGeometry x="3" y="930" width="817" height="30" as="geometry" />
        </mxCell>
      </root>
    </mxGraphModel>
  </diagram>
</mxfile>
